# Blender v3.3.1 OBJ File: 'tileset.blend'
# www.blender.org
mtllib out_corner_half.mtl
o out_corner_half_Cube.012
v -0.500000 0.000000 0.100000
v -0.500000 -0.100000 0.000000
v 0.000000 -0.100000 0.000000
v -0.100000 0.000000 0.100000
v 0.100000 -0.500000 0.500000
v -0.500000 -0.400000 0.000000
v 0.500000 -0.500000 -0.500000
v 0.100000 -0.500000 -0.100000
v 0.000000 -0.400000 0.000000
v 0.000000 -0.400000 0.500000
v -0.100000 0.000000 0.500000
v 0.000000 -0.100000 0.500000
v -0.500000 0.000000 0.500000
v -0.500000 -0.500000 -0.100000
v -0.500000 -0.500000 -0.500000
v 0.100000 -0.500000 -0.100000
v 0.500000 -0.500000 0.500000
vt 0.643961 0.500000
vt 0.643961 0.750000
vt 0.606039 0.750000
vt 0.606039 0.500000
vt 0.395906 0.500000
vt 0.395906 0.750000
vt 0.375000 0.750000
vt 0.375000 0.500000
vt 0.375000 0.750000
vt 0.375000 0.750000
vt 0.375000 0.750000
vt 0.375000 0.750000
vt 0.375000 0.750000
vt 0.375000 0.750000
vt 0.375000 0.750000
vt 0.375000 0.750000
vt 0.875000 0.750000
vt 0.875000 0.750000
vt 0.375000 0.500000
vt 0.375000 0.500000
vt 0.375000 0.750000
vt 0.375000 0.750000
vt 0.375000 0.750000
vt 0.643961 0.750000
vn 0.0000 0.7071 -0.7071
vn 0.0000 0.0000 -1.0000
vn 0.7071 0.7071 0.0000
vn 1.0000 0.0000 0.0000
vn 0.0000 1.0000 0.0000
usemtl Material.011
s off
f 1/1/1 4/2/1 3/3/1 2/4/1
f 6/5/2 2/4/2 3/3/2 9/6/2
f 16/7/1 14/8/1 6/5/1 9/6/1
f 5/9/3 8/10/3 9/11/3 10/12/3
f 10/12/4 9/11/4 3/13/4 12/14/4
f 12/14/3 3/13/3 4/15/3 11/16/3
f 4/2/5 1/17/5 13/18/5
f 8/10/5 7/19/5 15/20/5 14/21/5
f 8/10/5 5/9/5 17/22/5 7/23/5
f 11/24/5 4/2/5 13/18/5
