# Blender v3.3.1 OBJ File: 'tileset.blend'
# www.blender.org
mtllib out_corner_1x1_alt.mtl
o out_corner_1x1_alt_Cube.017
v -0.500000 0.500000 0.100000
v -0.500000 0.400000 0.000000
v -0.200000 0.400000 0.200000
v -0.250000 0.500000 0.250000
v 0.100000 -0.500000 0.500000
v -0.500000 -0.400000 0.000000
v 0.500000 -0.500000 -0.500000
v -0.100000 -0.500000 0.100000
v -0.200000 -0.400000 0.200000
v 0.000000 -0.400000 0.500000
v -0.100000 0.500000 0.500000
v 0.000000 0.400000 0.500000
v -0.500000 0.500000 0.500000
v -0.500000 -0.500000 -0.100000
v -0.500000 -0.500000 -0.500000
v 0.500000 -0.500000 0.500000
vt 0.643961 0.500000
vt 0.643961 0.750000
vt 0.606039 0.750000
vt 0.606039 0.500000
vt 0.395906 0.500000
vt 0.395906 0.750000
vt 0.375000 0.750000
vt 0.375000 0.500000
vt 0.375000 0.750000
vt 0.375000 0.750000
vt 0.375000 0.750000
vt 0.375000 0.750000
vt 0.375000 0.750000
vt 0.375000 0.750000
vt 0.375000 0.750000
vt 0.875000 0.750000
vt 0.875000 0.750000
vt 0.375000 0.500000
vt 0.375000 0.500000
vt 0.375000 0.750000
vt 0.375000 0.750000
vt 0.375000 0.750000
vt 0.643961 0.750000
vn 0.4260 0.6086 -0.6694
vn 0.5547 0.0000 -0.8321
vn 0.3310 0.7448 -0.5793
vn 0.5793 0.7448 -0.3310
vn 0.8321 0.0000 -0.5547
vn 0.6694 0.6086 -0.4260
vn 0.0000 1.0000 0.0000
usemtl Material.016
s off
f 1/1/1 4/2/1 3/3/1 2/4/1
f 6/5/2 2/4/2 3/3/2 9/6/2
f 8/7/3 14/8/3 6/5/3 9/6/3
f 5/9/4 8/7/4 9/10/4 10/11/4
f 10/11/5 9/10/5 3/12/5 12/13/5
f 12/13/6 3/12/6 4/14/6 11/15/6
f 4/2/7 1/16/7 13/17/7
f 8/7/7 7/18/7 15/19/7 14/20/7
f 8/7/7 5/9/7 16/21/7 7/22/7
f 11/23/7 4/2/7 13/17/7
