# Blender v3.3.1 OBJ File: 'tileset.blend'
# www.blender.org
mtllib ramp_high_1x1.mtl
o ramp_high_1x1_Cube.021
v -0.500000 0.000000 -0.500000
v -0.500000 0.500000 0.500000
v -0.100000 0.000000 -0.500000
v 0.000000 -0.100000 -0.500000
v 0.000000 0.400000 0.500000
v -0.100000 0.500000 0.500000
v 0.500000 -0.500000 -0.500000
v 0.500000 -0.500000 0.500000
v 0.000000 -0.400000 -0.500000
v 0.100000 -0.500000 -0.500000
v 0.100000 -0.500000 0.500000
v 0.000000 -0.400000 0.500000
vt 0.643961 0.500000
vt 0.875000 0.500000
vt 0.875000 0.750000
vt 0.643961 0.750000
vt 0.606039 0.750000
vt 0.606039 0.500000
vt 0.395906 0.500000
vt 0.395906 0.750000
vt 0.375000 0.750000
vt 0.375000 0.500000
vt 0.375000 0.750000
vt 0.375000 0.500000
vn 0.0000 0.8944 -0.4472
vn 0.6667 0.6667 -0.3333
vn 1.0000 0.0000 0.0000
vn 0.7071 0.7071 0.0000
vn 0.0000 1.0000 0.0000
usemtl Material.020
s off
f 3/1/1 1/2/1 2/3/1 6/4/1
f 3/1/2 6/4/2 5/5/2 4/6/2
f 9/7/3 4/6/3 5/5/3 12/8/3
f 11/9/4 10/10/4 9/7/4 12/8/4
f 10/10/5 11/9/5 8/11/5 7/12/5
