# Blender v3.3.1 OBJ File: 'tileset.blend'
# www.blender.org
mtllib vertical_half_bottom.mtl
o vertical_half_bottom_Cube.010
v -0.500000 0.000000 -0.500000
v -0.500000 0.000000 0.500000
v -0.100000 0.000000 -0.500000
v 0.000000 -0.100000 -0.500000
v 0.000000 -0.100000 0.500000
v -0.100000 0.000000 0.500000
v 0.000000 -0.500000 -0.500000
v 0.000000 -0.500000 0.500000
vt 0.643961 0.500000
vt 0.875000 0.500000
vt 0.875000 0.750000
vt 0.643961 0.750000
vt 0.606039 0.750000
vt 0.606039 0.500000
vt 0.395906 0.500000
vt 0.395906 0.750000
vn 0.0000 1.0000 0.0000
vn 0.7071 0.7071 0.0000
vn 1.0000 0.0000 0.0000
usemtl Material.009
s off
f 3/1/1 1/2/1 2/3/1 6/4/1
f 3/1/2 6/4/2 5/5/2 4/6/2
f 7/7/3 4/6/3 5/5/3 8/8/3
