# Blender v3.5.1 OBJ File: 'DefaultTileset.blend'
# www.blender.org
mtllib Lower_Wall_Inner.mtl
o Lower_Wall_Inner_Cube.012
v -0.500000 0.000000 0.000000
v 0.000000 0.500000 0.500000
v -0.500000 0.000000 0.500000
v 0.000000 0.000000 0.500000
v -0.500000 0.500000 0.000000
v 0.000000 0.000000 0.000000
v 0.000000 0.500000 0.000000
vt 0.375000 0.875000
vt 0.375000 1.000000
vt 0.375000 1.000000
vt 0.375000 0.875000
vt 0.375000 0.875000
vt 0.375000 1.000000
vt 0.375000 0.875000
vn 0.0000 1.0000 0.0000
vn 0.0000 0.0000 1.0000
vn -1.0000 0.0000 0.0000
usemtl Material.012
s off
f 6/1/1 1/2/1 3/3/1 4/4/1
f 1/2/2 6/1/2 7/5/2 5/6/2
f 7/5/3 6/1/3 4/4/3 2/7/3
