# Blender v3.5.1 OBJ File: 'DefaultTileset.blend'
# www.blender.org
mtllib Middle_Wall_Outer.mtl
o Middle_Wall_Outer_Cube.019
v 0.500000 -0.500000 0.000000
v 0.000000 -0.500000 -0.500000
v 0.500000 0.500000 0.000000
v 0.000000 0.500000 -0.500000
v 0.000000 -0.500000 0.000000
v 0.000000 0.500000 0.000000
vt 0.375000 0.875000
vt 0.375000 0.750000
vt 0.375000 0.750000
vt 0.375000 0.875000
vt 0.375000 1.000000
vt 0.375000 1.000000
vn 0.0000 0.0000 1.0000
vn -1.0000 0.0000 0.0000
usemtl Material.019
s off
f 5/1/1 1/2/1 3/3/1 6/4/1
f 2/5/2 5/1/2 6/4/2 4/6/2
