# Blender v3.5.1 OBJ File: 'DefaultTileset.blend'
# www.blender.org
mtllib Upper_Wall_001.mtl
o Upper_Wall.001_Cube.021
v 0.500000 -0.500000 0.000000
v -0.500000 -0.500000 0.000000
v -0.500000 0.000000 -0.500000
v 0.500000 0.000000 -0.500000
v 0.500000 0.000000 0.000000
v -0.500000 0.000000 0.000000
vt 0.375000 1.000000
vt 0.375000 0.750000
vt 0.375000 0.750000
vt 0.375000 1.000000
vt 0.375000 1.000000
vt 0.375000 0.750000
vn 0.0000 1.0000 0.0000
vn 0.0000 0.0000 1.0000
usemtl Material.021
s off
f 6/1/1 5/2/1 4/3/1 3/4/1
f 2/5/2 1/6/2 5/2/2 6/1/2
