# Blender v3.5.1 OBJ File: 'DefaultTileset.blend'
# www.blender.org
mtllib Upper_Wall_Inner.mtl
o Upper_Wall_Inner_Cube.013
v 0.500000 0.000000 0.500000
v -0.500000 -0.500000 0.000000
v -0.500000 0.000000 -0.500000
v 0.000000 0.000000 0.500000
v 0.000000 -0.500000 0.500000
v -0.500000 0.000000 0.000000
v 0.000000 -0.500000 0.000000
v 0.500000 0.000000 -0.500000
v 0.000000 0.000000 0.000000
vt 0.375000 0.875000
vt 0.375000 0.875000
vt 0.375000 0.875000
vt 0.375000 0.875000
vt 0.375000 0.875000
vt 0.375000 0.875000
vt 0.375000 1.000000
vt 0.375000 1.000000
vt 0.375000 1.000000
vn 0.0000 1.0000 0.0000
vn -1.0000 0.0000 0.0000
vn 0.0000 0.0000 1.0000
usemtl Material.013
s off
f 9/1/1 4/2/1 1/3/1 8/4/1
f 9/1/2 7/5/2 5/6/2 4/2/2
f 2/7/3 7/5/3 9/1/3 6/8/3
f 6/8/1 9/1/1 8/4/1 3/9/1
